<mxfile host="Electron" agent="Mozilla/5.0 (Windows NT 10.0; Win64; x64) AppleWebKit/537.36 (KHTML, like Gecko) draw.io/26.2.15 Chrome/134.0.6998.205 Electron/35.2.1 Safari/537.36" version="26.2.15">
  <diagram id="C5RBs43oDa-KdzZeNtuy" name="Page-1">
    <mxGraphModel dx="874" dy="674" grid="1" gridSize="10" guides="1" tooltips="1" connect="1" arrows="1" fold="1" page="1" pageScale="1" pageWidth="827" pageHeight="1169" math="0" shadow="0">
      <root>
        <mxCell id="WIyWlLk6GJQsqaUBKTNV-0" />
        <mxCell id="WIyWlLk6GJQsqaUBKTNV-1" parent="WIyWlLk6GJQsqaUBKTNV-0" />
        <mxCell id="Dcz3eESDd5eWfrBveF-l-0" value="Events" style="rhombus;whiteSpace=wrap;html=1;" parent="WIyWlLk6GJQsqaUBKTNV-1" vertex="1">
          <mxGeometry x="40" y="20" width="80" height="80" as="geometry" />
        </mxCell>
        <mxCell id="Dcz3eESDd5eWfrBveF-l-1" value="(4 Hearts)&lt;div&gt;&lt;br&gt;Raven singing&lt;/div&gt;" style="rounded=1;whiteSpace=wrap;html=1;" parent="WIyWlLk6GJQsqaUBKTNV-1" vertex="1">
          <mxGeometry x="20" y="120" width="120" height="60" as="geometry" />
        </mxCell>
        <mxCell id="Dcz3eESDd5eWfrBveF-l-3" value="" style="endArrow=none;html=1;rounded=0;" parent="WIyWlLk6GJQsqaUBKTNV-1" edge="1">
          <mxGeometry width="50" height="50" relative="1" as="geometry">
            <mxPoint x="-0.34" y="110" as="sourcePoint" />
            <mxPoint x="160.34965517241378" y="110" as="targetPoint" />
          </mxGeometry>
        </mxCell>
        <mxCell id="Dcz3eESDd5eWfrBveF-l-4" value="(11 Hearts Event)&lt;div&gt;&lt;br&gt;[Gag] You&#39;re Nice uwu&lt;/div&gt;" style="rounded=1;whiteSpace=wrap;html=1;" parent="WIyWlLk6GJQsqaUBKTNV-1" vertex="1">
          <mxGeometry x="20" y="200" width="120" height="70" as="geometry" />
        </mxCell>
        <mxCell id="G3nwgKqsDJzuOCZQa7Bc-0" value="(2 Hearts)&lt;br&gt;&lt;br&gt;Music Heart Event&lt;br&gt;[Raven playing ukulele]&lt;br&gt;&lt;br&gt;Conditions: Spring, 2 Hearts, 10AM - 2PM&lt;br&gt;Location: Mountains (in front of Linus&#39; tent)&lt;br&gt;Actors: Linus, Raven, Farmer&lt;br&gt;Song: &amp;lt;?&amp;gt;&lt;br&gt;&lt;br&gt;Start Positions:&lt;br&gt;Raven - Standing behind campfire&lt;br&gt;Linus - Sitting next to campfire&lt;br&gt;&lt;br&gt;- Camera pans left-to-right&lt;br&gt;&lt;div style=&quot;&quot;&gt;&lt;span style=&quot;background-color: transparent; color: light-dark(rgb(0, 0, 0), rgb(255, 255, 255));&quot;&gt;- Farmer walks into frame from the left&lt;br&gt;/emote farmer &amp;lt;&quot;?&quot;&amp;gt;/&lt;br&gt;- Let short song finish playing&lt;br&gt;/pause 100/&lt;br&gt;/faceDirection {{Raven}} 1/&lt;br&gt;/speak {{Raven}} &quot;So, what do you think Linus?&quot;/&lt;/span&gt;&lt;/div&gt;&lt;div style=&quot;&quot;&gt;&lt;span style=&quot;background-color: transparent; color: light-dark(rgb(0, 0, 0), rgb(255, 255, 255));&quot;&gt;/speak Linus &quot;I think it was wonderful.#$b#I appreciate the peaceful sound it has.&quot;/&lt;br&gt;/speak {{Raven}} &quot;Same here! I love my fast paced music, but I think it&#39;s good for the soul to listen to something easygoing sometimes.&quot;/&lt;/span&gt;&lt;/div&gt;&lt;div style=&quot;&quot;&gt;&lt;span style=&quot;background-color: transparent; color: light-dark(rgb(0, 0, 0), rgb(255, 255, 255));&quot;&gt;- Farmer walks up to the duo&lt;br&gt;- Raven jump-scream&lt;/span&gt;&lt;/div&gt;&lt;div style=&quot;&quot;&gt;&lt;span style=&quot;background-color: transparent; color: light-dark(rgb(0, 0, 0), rgb(255, 255, 255));&quot;&gt;/speak {{Raven}} &quot;I-I didn&#39;t know you were there @!&quot;/&lt;/span&gt;&lt;/div&gt;&lt;div style=&quot;&quot;&gt;&lt;span style=&quot;background-color: transparent; color: light-dark(rgb(0, 0, 0), rgb(255, 255, 255));&quot;&gt;- Raven lowers head&lt;/span&gt;&lt;/div&gt;&lt;div style=&quot;&quot;&gt;&lt;span style=&quot;background-color: transparent; color: light-dark(rgb(0, 0, 0), rgb(255, 255, 255));&quot;&gt;/faceDirection {{Raven}} 3/&lt;/span&gt;&lt;/div&gt;&lt;div style=&quot;&quot;&gt;&lt;span style=&quot;background-color: transparent; color: light-dark(rgb(0, 0, 0), rgb(255, 255, 255));&quot;&gt;/pause 100/&lt;/span&gt;&lt;/div&gt;&lt;div style=&quot;&quot;&gt;- Question&lt;br&gt;&lt;span style=&quot;white-space: pre;&quot;&gt;&#x9;&lt;/span&gt;$q &quot;S-so... What do you think of my song?&quot;&lt;/div&gt;&lt;div style=&quot;&quot;&gt;&lt;/div&gt;&lt;span style=&quot;white-space: pre;&quot;&gt;&#x9;&lt;/span&gt;(1 +100) $r &quot;I love it!&quot;&lt;br&gt;&lt;div&gt;&lt;/div&gt;&lt;span style=&quot;white-space: pre;&quot;&gt;&#x9;&lt;/span&gt;(2 +25) $r &quot;It was okay.&quot;&lt;div&gt;&lt;span style=&quot;white-space: pre;&quot;&gt;&#x9;&lt;/span&gt;(3 +0) $r &quot;I&#39;m not a huge fan.&quot;&lt;br&gt;&lt;span style=&quot;white-space: pre;&quot;&gt;&#x9;&lt;/span&gt;(4 -100) $r &quot;It kinda sucks.&quot;&lt;br&gt;&lt;br&gt;&lt;span style=&quot;white-space: pre;&quot;&gt;&#x9;&lt;/span&gt;(1) /speak {{Raven}} &quot;You do? That&#39;s great!#$b#I can show you another song I wrote if you have time.&quot;/emote farmer &amp;lt;&quot;heart&quot;&amp;gt;/ --- fade out ---&lt;br&gt;&lt;span style=&quot;white-space: pre;&quot;&gt;&#x9;&lt;/span&gt;(2)&amp;nbsp;/speak {{Raven}} &quot;I definitely have to keep practicing since I&#39;m self-taught with music.#$b#If you want, you can hang around to listen to more.&quot;/emote farmer &amp;lt;&quot;music&quot;&amp;gt;/ --- fade out ---&lt;br&gt;&lt;span style=&quot;white-space: pre;&quot;&gt;&#x9;&lt;/span&gt;(3)&amp;nbsp;/speak {{Raven}} &quot;That&#39;s okay, everyone has their own taste in music.#$b#It was nice seeing you though!&quot;/emote farmer &amp;lt;&quot;:3&quot;&amp;gt; true/emote {{Raven}} &amp;lt;&quot;:3&quot;&amp;gt;/&lt;br&gt;&lt;span style=&quot;white-space: pre;&quot;&gt;&#x9;&lt;/span&gt;(4)&amp;nbsp;/speak {{Raven}} &quot;...#$b#Okay...&quot;/emote {{Raven}} &amp;lt;&quot;teardrop&quot;&amp;gt;/speak {{Raven}} &quot;Well, uh... I&#39;ll see you later then.&quot;/emote farmer &amp;lt;&quot;teardrop&quot;&amp;gt;/&lt;br&gt;&lt;/div&gt;" style="rounded=0;whiteSpace=wrap;html=1;align=left;" vertex="1" parent="WIyWlLk6GJQsqaUBKTNV-1">
          <mxGeometry x="180" y="120" width="1020" height="600" as="geometry" />
        </mxCell>
      </root>
    </mxGraphModel>
  </diagram>
</mxfile>
